<svg width="374" height="150" viewBox="0 0 374 150" fill="none" xmlns="http://www.w3.org/2000/svg">
<path fill-rule="evenodd" clip-rule="evenodd" d="M-1 65.7206L15 68.0441C30 70.3676 62 73.8529 93 80.8235C124 87.7941 155 95.9265 187 98.25C218 100.574 249 95.9265 280 85.4706C312 73.8529 343 56.4265 358 48.2941L374 39V118H358C343 118 312 118 280 118C249 118 218 118 187 118C155 118 124 149.5 93 149.5C62 149.5 30 118 15 118H-1V65.7206Z" fill="#6EB257"/>
<path fill-rule="evenodd" clip-rule="evenodd" d="M-1 118L7 102.961C15 87.9216 30 56.6863 46 50.902C62 43.9608 77 61.3137 93 71.7255C108 83.2941 124 87.9216 140 74.0392C155 61.3137 171 31.2353 187 15.0392C202 0 218 0 233 2.31373C249 4.62745 265 9.2549 280 13.8824C296 17.3529 312 21.9804 327 19.6667C343 17.3529 358 9.2549 366 4.62745L374 0V118H366C358 118 339.5 133.5 323.5 133.5C305 133.5 296 124 280 124C265 124 249 118 233 118C218 118 202 118 187 118C171 118 155 118 140 118C124 118 108 118 93 118C77 118 62 118 46 118C30 118 15 118 7 118H-1Z" fill="#507255" fill-opacity="0.38"/>
<path fill-rule="evenodd" clip-rule="evenodd" d="M-1 79.7509H15C30 79.7509 62 79.7509 93 69.3614C124 57.8175 155 35.8842 187 25.4947C218 15.1052 249 15.1052 280 20.8772C312 27.8035 343 40.5017 358 47.4281L374 54.3544V119H358C343 119 312 119 280 119C249 119 218 138.5 187 138.5C155 138.5 124 119 93 119C62 119 30 119 15 119H-1V79.7509Z" fill="#C5E063" fill-opacity="0.42"/>
</svg>
